<mxfile host="app.diagrams.net" modified="2023-06-02T02:37:58.111Z" agent="Mozilla/5.0 (Windows NT 10.0; Win64; x64) AppleWebKit/537.36 (KHTML, like Gecko) Chrome/112.0.0.0 Safari/537.36 OPR/98.0.0.0" etag="A7s7Ni0ORN99g5ry3lsN" version="21.2.3" type="github">
  <diagram name="PÃ¡gina-1" id="oK3gjy1UrRBLA9j7FepN">
    <mxGraphModel dx="1394" dy="797" grid="1" gridSize="10" guides="1" tooltips="1" connect="1" arrows="1" fold="1" page="1" pageScale="1" pageWidth="827" pageHeight="1169" math="0" shadow="0">
      <root>
        <mxCell id="0" />
        <mxCell id="1" parent="0" />
        <mxCell id="85xW5tCjIg7HwefgXKqP-1" value="" style="shape=image;verticalLabelPosition=bottom;labelBackgroundColor=default;verticalAlign=top;aspect=fixed;imageAspect=0;image=data:image/png,iVBORw0KGgoAAAANSUhEUgAAAgAAAAIACAYAAAD0eNT6AAAACXBIWXMAAAsTAAALEwEAmpwYAAAAAXNSR0IArs4c6QAAAARnQU1BAACxjwv8YQUAACAtSURBVHgB7d1/rNXlneDxD0hFt+C4Sd0AZZK2oqj7D2A31URUmnRH6dTtT9tqk1XcsXbrj/7ecZ22dpxuu9Z2a3XHHx3AP6pORTvjjwLpJMXFJmqCXv4ZLYJbk7HALk3GAGnEWp3zHOba6+Wcc8+993zPPef7eb2SGxAul3sE7vP+Pt/neb6zXm8IACCV2QEApCMAACAhAQAACQkAAEhIAABAQgIAABISAACQkAAAgIQEAAAkJAAAICEBAAAJCQAASEgAAEBCAgAAEhIAAJCQAACAhAQAACQkAAAgIQEAAAkJAABISAAAQEICAAASEgAAkJAAAICEBAAAJCQAACAhAQAACQkAAEhIAABAQgIAABISAACQkAAAgIQEAAAkJAAAICEBAAAJCQAASEgAAEBCAgAAEhIAAJCQAACAhAQAACQkAAAgIQEAAAkJAABISAAAQEICAAASEgAAkJAAAICEBAAAJCQAACAhAQAACQkAAEhIAABAQgIAABISAACQkAAAgIQEAAAkJAAAICEBAAAJCQAASEgAAEBCAgAAEpoTpLdn/54Y+aft8dy+nY3v722+HTx0MCCjf3PUsXHjB78di45fGFBns15vCNI50Bjg73t6Q/z0mU3NAAAOe/XQq/G2o98Wa9fcKQKoNQGQTLm6X/v4uubADxypBMArv32lMfgvEgHUmgBIZO3j6+PHI/c1r/6B1kYDoBAB1JkASKBc9f+3h66Nnft2BdDZ2AAoRAB1ZRdAzZVB/7MbrjL4wxTtfml3XLbu8sa31spQLwKgxkYH/zIDAEydCKCOBEBNlUG/DP7u90NviADqRgDUkMEfqiECqBMBUENlm59pf6iGCKAuBEDN/PQfN9njDxUTAdSBAKiZtU+sC6B6IoBhJwBqpFz9m/qH/hEBDDMBUCMbTf1D34kAhpUAqIly5f/0iyMB9J8IYBgJgJrY+vzWAGaOCGDYCICa2LrrFwHMLBHAMBEANbFz384AZp4IYFgIgBo4eOigU/9ggIgAhoEAqIHnXP3DwBEBDDoBAFAREcAgmxMwDQuPWxAMHreFBsdoBKxdc2csOn5hwKAQAEzK8sXL4ux3rYyVJ55l8B9wJQB27dvVPCBq5NfbnRI5g0QAg2jW6w3BUCsHAH12w9VRpflz58XVZ18Vq087Lxg+ZfBf98T62Pjs5qCzVw+9Gq/89pWowqLjF4kABoY1AEyoXOmvv2itwX+IlT/D6/7jtXFNI+KYOdYEMEgEAB2VgeOWj9xsur8mLlz+0bjufdcGM0cEMCgEAB0Z/OunzOR8fNlHg5kjAhgEAoC21rznUoN/Ta05w5/tTBMBzDQBQFvu+dfXvLnz4kKzADNOBDCTBAAtrXyXbX51t/q084OZJwKYKQKAlsp+f+qtzAIsnC/yBoEIYCYIAFpaeJx9yhmc9O+WBINBBNBvAoCWysE/1N9bj/bnPEhEAP0kAAAGiAigXwQAwIARAfSDAAAYQCKAqgkAgAElAqiSAAAYYCKAqswJmCFbfvlo7Nj73BE/Pv+Y+XHxGZ9s+Wtuf/TOlj++6pRzY+mCk+PAywfi7ifuPeLny2NYL1j2pzEZ2154Kh5tfI7bXni6+cW3fOzRj1Ue5/qBxsd79ztWNP97rIe2P9L8ot3t6yof+6HtD7f8HMrnPP7jk89oBHiUML0kAJgxSxcsjS/87Zfb/NzJjcH19Df9WBlY73j0h0e8b/mCODq4H3j5YMv3KQN1twFQBvryeZUAaKV8MS5v5efL7/3pcy9/08cuP/b1v/9GdPu67mhETXltrV7XFY2PDYUIoNfcAmDGHB48/6zlz40fQMtVcquBvSgDcC+vkj9x+6faDv7jlc+rfK4PjxnAywBfZiRaGf8aDl/9P9Lyfb/xwa8HjOV2AL0kAJhRZUq81eBdvsDd/cTfvvHfD7eZVh979d8LZYBu9ftM5Dubv/fGLYLiS+d9oTnlP14Ji7FxcUebWxoXNG8vnB4wngigVwQAM6oMkl867/Mtf64MjmVQPRwD97Z8nx9ecnv0Urur8aLERqtBvSif59hfW973ojM+0fJ9R2cBOl39t5sZgUIE0AsCgBlXpstbXe2OLugbDYHxer1ArnwxbTfL8NPPPdh4eyi2/vnP2w7sz41b0HhFm1sTZQagLIBsd/VfBn8L/5iICGC6LAJkIJT73e///gVH/Pg9jdsArQb/TusHeq1c9Y8dkMvA/lzL3QtHnqv/jQ9+Lf7sriuO+PGv//1ftn1dFv7RLQsDmQ4BwEAYHdDHL5JrNUgWH+jj9riyVbEs9Bu9Mi9B8MNL7ujq144uCCxX/GO1e12fNvgzSSKAqXILgIHRbkHgeFVdJZeP2+73L/fq3//9/9ScpSgxUAb0doP4eO0WBI636pRzerqgkTzcDmAqBAADo9OCwLGqvEpud39/1OjCvXJOwNnffm8zBibaNdBpQeBYJRRgqkQAkyUAGChlurzT1XKZUq/yKrnMQnQzWI8anRlod0bB2I/bybmN123hH9MlApgMAcBAKQNqp6n18fvoq/Dl877YXJQ4mQG5HFE89tyC8e7p8HPFU43XNJXzB2A8EUC3BAADo9Npf2N18z7TVWYZyta/cs5AmREoRwlP/Hm13q5YXle7ZxiMKr/ups3/K6AXRADdEAAMjHan/Y1XZgDunuCKulfKLYcyI1BW/ZczAL73ie80F+u1UgbxVg83umOCwX/UluaDh6qd3SAPEcBEBAADoZur5LHaXW1P93MotyDGv40O6mVtQlmj8L1P3NT2mN7xAVMG9E6nC4530+bvBfSKCKAT5wAwEDqdiV++eI2/Mi6Df7kV0MuV8+X3aPUUvzLYjz9yuNWhP62UA39aKWcKPPXC00e8rhIbZXbj4kksRIROnBNAOwKAGTd6pd1KGSibAXDXkVPj5ZjgciBQecTuRLY1Btvl1/+Htj9fBvh2H2c0DMrvVcKjDNxbfvl/Wr7v2IWDD03wAKMSFq1eV4mhC5a9v6uzA6AbIoBW3AJgxrVb1FcW35UBtQyUH2iz9a+XU+YlANoNumUwL0f6lv3/7R5MVL6wjt4a6ObxxeV92z0DoR8LHcnF7QDGEwDMqHaP3y2D6di98+Xkv3aP1x1/zO50TOeWwthIKVfx3Ty+uN3zDEpkWBBIr4kAxhIAzJhOj8O9aNyxwJ1O0yuzAL1aEFgG56k8ZKgM/qPHE3d+zO+bTzFsNwtQmAWgCiKAUQKAGdPpKrnVyXnlx1rNApQvZO2m5aeiDOTdHgR0+PjiL8RfNt5/VKuFhMX4q/9R3xjza8fq53ZHchEBFLNebwiG2tMvjsRnN1wdvXTrR26O5YuXRZXaTXGXgbfdQqWySr7V1X4ZiMs9/HZ78SfS7v7/6N78sY//Le+3sPH5LV2wtHkmwNhf1+n377TGoN3/i9HXVZW/+tm3YtOzm4M/ePXQq/HKb1+JDMq/NQsD87ILgBnTbuq7k4kGwzJgTuXjtlP2/Ze3bk319+/l5wzdsjsgN7cAABJzOyAvAQCQnAjISQAAIAISEgAANImAXAQALe3Z7wtABv/vwN6AsURAHgKAlnbu2xXU3579AoAjiYAcBAAt7fyNAKi7vY3BXwDQjgioPwFASyMvbjcLUHNrn1wf0IkIqDcBQFsGiPoqV/8l8mAiIqC+BABtPfb8L5pv1E+JO9P/dEsE1JMAoKO/+odvuRVQM+sag//GZ5z/387sOb4stiIC6sffdDo6eOhgXPnANWYCauLmrbfE2ifuCtqbNXtW0JoIqBcBwIRKBPz5I9fFNxuzAXtNGw+l8sTIS+65LO4buT/obNasWTF7ti+N7YiA+vA44Bqo4nHAnaw88axY8fZlseSEJbHwuAXBYCq3bsp2zrLYz4K/ySmPAy6PBaY9jxIefgKgBvodAFB3v3/193HowKGgMxEw3MxzAYxz1JyjLAbsgtsBw83fcIAW3nLsW4KJiYDhJQAAWjAL0D0RMJz87QZoY+5b5zZ3BTAxETB8BABAG+VMgKPnHR10RwQMFwEA0EG5FXD0W0VAt0TA8BAAABOYc/Sc5kyA2wHdEQHDQQAAdGHOW+bEMccd46jgLomAwScAALpUBv9j/+jY5i0BITAxETDYBADAJJVbAqMhcNRbjgraEwGDa04AMCUlBMpb8dqrr8Vrv38tXn/N6erj7Xt5X1xx72fjoc/8JBgcAgCgB8qhQQ4Oaq9EAIPF31YASEgAAEBCAgAAEhIAAJCQAACAhAQAACQkAAAgIQEAAAkJAABISAAAQEICAAASEgAAkJAAAICEBAAAJCQAACAhAQAACQkAAEhIAABAQgIAABKaE8yoAy8fiJ//8tHYsWdH7P7nPc3/nqyDhw7GywdeDobfrFmzYvZRs2P2W2bHUXOOCoCqCIAZsmPPc3Hjppti2wtPBYz1+9/9PqLRc7Nmz4o5R8+JOcfMaYYBQC8JgBlw+5Y74rYtdwZ08vprr8fvXv5dvPrKqzF33tzmzABArwiAPitX/Xc/fm9At0oIHDpwKObOFwFA7/hq0kcPjjxs8GdKXn/9cASUbwF6QQD00e2m/ZmGMvi/+vKrAdALAqBPtr2wLXa/tDtgOsp6AIBeEAB98uuX9gQADAoBAAAJCQAASEgAAEBCAgAAEhIAAJCQAACAhAQAACQkAAAgIQEAAAkJAABISAAAQEICAAASEgAAkJAAAICEBAAAJCQAACAhAQAACQkAAEhIAABAQgIAABKaE6T07necHov+7aKo0o49O2LH3ueiKouOXxTvfufpUaXd/7wntr2wLQDqRgAkdsOHro8q7X5pd1z41xfFgZcPRBU+s+ryuGD5B6JKX/276yNeCIDacQsgqW0vPBU/f/bRqFK5Qv/UmZ+MKpSPXfXg/+DIw/FQ4w2gjgRAYl9rXN1WdXU+6uIzL2oO1r325dVfjCqV/y+3b7kzAOpKACRWBrkbN303qjT/mPnxlfN7O1iXK//3nnJuVOnux+9p3sIAqCsBkFyZ4t72q6eiSqtOPbe56LBXPrPq01GlMvDf5uofqDmLAGkudLvvv97TvFqvShm0L1t/eUzXFY2Ps+j4hVGly9ZVGxjDbP7ceTGv8TZMDh46GAcab8CbCQD+9Yr3jsZU/ZeiKmW7XlkPUKbWp6rKRYWjTP0fqQz6Fy77WJx/2nmx8LgFMYz27N8bm57ZHBuf3dT8PuAWAP/q7sfvrfxWQNm2N51Zhun++omY+j9SGfDXX7Q21pxxydAO/kX53MtruOUjN8dJJywJQAAwRnPPe4XK4D3VK/h+bPsrg3/VuyKGSRk0y4A5zAP/eOW13Fqz1wRTJQB4w+itgCodvoc/+W2Ba9dUe2Vuz/+R1rzn0loOlGUNw3XvuzYgOwHAm5S97zv2VHd8bzHZEwjLlX+VC/9K+Njz/2Zl4F/duOdfV8sXL4sVjTfITABwhBs33RRVKgsCu90WWG4bVL3t70cW/h3h/FPrO/iPyvAaoRMBwBHKMcE/msZq/W50u+Pg8EmC1V79lwWQvNlJJ5wUdZfhNUInAoCWypT47pf2RFWWLjy5Obh3UtYKlJX/VbLnv7X5Q7bXfyqG7TwD6DUBQEtlNfxXf/L1qNJE2/qqHvxv33KHqf829uyvLv4Gxd4ErxE6EQC0VfWtgE7391edcm6l2/7s+e9s575dUXcZXiN0IgDo6PaK98ZffOYnY+mCk4/48a+sru5UwuLGjdU+BGnYbXx2c/MI3Tq7b/v9AZkJADo6fCvg+qjS+AWBVW/7K3v+t/zy0aC9MvivfXJ91NXGZxwJDAKACZXBsspjgsduCzy88K+6hXn2/HfvvpH7mzMBdbOrMfX/g623BmQnAOhKOSa4ylsBN3z4+ua3ZeFflVf/tzV3N1j4161v/uxbtZoJuG/7hrjygWs8HRDC0wDpUtVPDCxX/uWEwCoX/m17YZvjfqdg3RN3NZ+kt/LEs2Llu86KYVNuZ+z8za7mazDtD38w6/WGoHIPbn84vlbxvfR+WHvpnc0p+2F0/vc+MPRX/7Nmz4pj/+jYgGH0+OcfCwaHWwBMStW3Aqpizz/AmwkAJqUMolUfE9xr9vwDHEkAMGn9eGJgL33uni8GAG8mAJiSqp8Y2Ctlz/+OvcMTKwD9IgCYkn48MXC67PkHaE8AMGVVPzFwuuz5B2hPADBl/Xhi4FSVqX97/gHaEwBMyyDeCihhYuofoDMBwLRV/cTAybq7ESSm/gE6EwBMWz+eGNgte/4BuiMA6InyxMCfP/tozLTL1lX3JEGAOhEA9Mx3Nn13Rm8FmPoH6J4AoGdGnxg4c7+3qX+AbgkAeurux++NHXt3RL/dNmALEQEGnQCgpy5Y/oFYumBp9Nv8Y+YHAN0TAPTMouMXxWdWzcwivM+surz5+wPQHQFAzxwehBfGTCgzADd86PoAoDsCgJ4oV99l+n8mvfudp8eqU84NACYmAOiJtWsGYwX+V1Z/0XoAgC4IAKbtisZ9/5ma+h9vJtchAAwTAcC0HB5wL49BcvGZn4x3v+P0AKA9AcC0fLkx5T6Ibvjw9QFAewKAKSuL/t47oIvuBnFmAmCQCACmZBjutV985kXOBgBoQwAwJTO5579bzgYAaG9OwCSVBXYzvee/W+VsgDITUJ4UyNTNnzsvVp54Vqx4+/KY1/h+eWN4HTx0MLY+/1iM/Hp77Nm/N8hJADBpN3z4GzFMymzFQyMPe1jQFF247GOx5oxLmhFAfZSgK9Y9cVesfXJ9kI9bAEzKIO3575ZbAVO35j2XxjXnXGnwr7ESd3ddtNasTkICgK4N88r6Vaee62yASVp92nlxWWNwoP5OOmFJXNaIPXIRAHTt+xd9N6pU9RR9ORvAMcHdW2NASOXC5R+NFYuXBXkIALpSFv0tXXByVOnCv74ofv7so1EVxwR3r1z9LzxuQZDLynedFeQhAJhQPwbOB0cejt0v7Y7vbPpupTMBjgnuzpK3LQnyWXniyiAPAcCEqt7zXwb+27fc+cb3f1Txlr2vnP+loLOTTzgpyMesTy4CgI5WnXJu5Xv+b2sM/mXgH3X34/c2/ntPVGXpwpObZwPQ3oFDB4N8DvpzT0UA0NFXVld7tVwG/rJHf6xyC+DGjTdFlQ7PajgmuJ09+6sLMAbXzn07gzwEAG31Y8//5+5p/TTBLb98NLb96qmoirMBOnvs//4iyGfjs5uDPAQALfVjz39Z+Ldj73Ntf/62LXdElUaPCeZIIy9ub76Rx979e/2ZJyMAaGntmjujSmWaf3ThXzvbXniq8gWBJXKcDdDaN//hW81BgRzKccCeC5CLAOAIZdFf1VP/5eE8Yxf+tVMiocptgWXwdzZAa2UwuPKBa0RAzZWFfzdvvSU2PmP6PxsBwJv0Y89/Gfhv29LdDEMZ/Ku+FeBsgPZGI6BcHQqBehl9IuAl91wW943cH+TjaYC8SdV7/otuB/9RZVvgp868uNLPqxwTXE4i9MTAI5UIKE+MK2/lzHgPjRl+ZfAvQWe7Z24CgDeUqf+q9/yXhX/jt/1146s/+Xql6xJGZz5u3FTt9sNht3PfrgDqwS0Amvp1L/z2LVMbxMuCwCq3BRblVkDVzzsAGBQCgKayHa7qqf/bG/fyu1n4185X/+76yqfoHRMMZCEA6Mue/8Nn/N8b09GP5wQ4GwDIQgBQ+Z7/4rYebeer+jkBhWOCgQwEQHL9mPrfsXfHlBb+tdKPbYGOCQYyEACJ9WPqv/jcPb29r15iouoFgeVWQHkSIkBdCYDE+nEMbtn2N52Ff+1UPQtQlLMBHBMM1JUASKofe/7LwD/VbX8T6cdzAhwTDNSZAEioXwNbWfhXxdX/qKqfE1A4JhioKwGQUBn8q174Vwb+Xi38a6cM/lXPAhRuBQB15CjghPa/vL/ye+gPjTwS/VDVLYbxSjDt2Os5AUB9CICE+jVo9kvdXg9AP7gFAAAJCQAASEgAAEBCAgAAEhIAAJCQAACAhAQAACQkAAAgIQEAAAkJAABISAAAQEICAAAS8jAgYEILj1vQfKNeDhw6GDv37QpyEgBAW8sXL4vL3nNp81vqac/+vbFhZEP8ePv9QS4CAGjpwmUfi2vOuTKotzKzc/U5V8W8ufNj7ZPrgzysAQCOUAYFg38ua864JFaY6UlFAABHOP/U84J81jRu95CHAACOsGLx8iCfk05YEuQhAABomjd3XpCHAACAhAQAACQkAPrklAVLA6Zr1qxZAdALAqBPli44ORYdvyhgOuYc4+gOoDcEQB/d8KHrA6Zq1uxZcdRbjop+2LN/T5CPY4FzEQB99O53nh6fWfXpgMkqg//c+XP7dgtg47Obg3x27tsZ5CEA+uyKVZc3ZwLcDqBbs+fMbg7+s2f375/ryIvbm2/ksXf/3lj35F1BHrNebwj6bvdLu+OhkUfiwZGHm9+H8crAf/SxRze/nQllT/i3//SbHgSUQBn8r3zgmuaDgar0+OcfCwaHABgAO/Y+F9t+tS1+3QiBAy8fjMkq92uf/qeRYPiVq/zmvf6jjxqYFf8rTzwrVrx9WSxxSlztlIF/5292xaZnNjcfDVw1ATBYBEANPP3iSHx2w9UBMMgEwGCxBgAAEhIAAJCQAACAhAQAACQkAAAgIQEAAAkJAABISAAAQEICAAASEgAAkJAAAICEBAAAJCQAACAhAQAACQkAAEhIAABAQgIAABISAACQkAAAgIQEAAAkJAAAICEBAAAJCQAASEgAAEBCAgAAEpoTMAnLFy+L9596fiw4bkEAw2vnvl1x3/YNsWf/3iAnAUBXysB/3fuujYUGfqiF8m/6wuUfjY3PbI6bt94SBw8dDHJxC4AJrW5c8d/6kZsN/lBDq087r/nve97ceUEuAoCOyqB/9TlXBlBfJ52wJP6iMcNHLgKAjta859KY78oAam/liWfFisZtAfIQALRVrv7L9CCQw/mn+veeiQCgrSVvWxJAHssXLw/yEAC0Ne8YU/+QiYW+uQgAAJpsBcxFANDWrn27Ashj576dQR4CgLbKSWF7nRIGaWx8dnOQhwCgo7VPrg+g/krsj7y4PchDANBROSbUVQHUXzkO2HMBchEATOibP/tW/HhkQwD1Uxb+XfvIdbH1+V8EuXgYEF35wdZbY9dvdjUPCllhrzAMvTLw/3j7htgwcn8csPo/JQFA15q3Axpv5WhgDw6B4Wa6HwHApJWrBVcMAMPNGgAASEgAAEBCAgAAEhIAAJCQAACAhAQAACQkAAAgIQEAAAkJAABISAAAQEICAAASEgAAkJAAAICEBAAAJCQAACAhAQAACQkAAEhIAABAQgIAABISAACQkAAAgIQEAAAkJAAAICEBAAAJzQmYpIXHLYiTTlgS8+bOC2C4HDx0sPm2c9+uOND4lrwEAF27cNnHYs0Zl8R8Az/UwsZnNse6J9fHnv17g3zcAmBCZcC/9SM3xzXnXGnwhxpZfdp5cf+lP46PL/tokI8AYEK3NAb/5YuXBVBPV59zVaw+9bwgFwFAR+UKodzvB+rtmkYEWNeTiwCgozXvuTSA+iuDv1sBuQgA2irT/mXFP5DD8sXLgzwEAG0tMPhDKm735SIAAGiyBiAXAUBbB192SAhkUg4HIg8BQFsjv97ePDEMyGHnvp1BHgKAtsrgv/X5xwLIYdOzm4M8BAAdrXvyLrMAkMDGZzbF0y9uD/IQAHRUzgi/8oFrRADU2K7Gvf8fbL01yEUAMKGyMOiSey5rXB2MBFAfJezXPrk+/nPj37cnA+bjaYB0pcwEXPXA55r7hFe+6ywHBMEQaz4O+De74rHnf2HgT0wAMCllNsBWIYDh5xYAACQkAAAgIQEAAAkJAABISAAAQEICAAASEgAAkJAAAICEBAAAJCQAACAhAQAACQkAAEhIAABAQgIAABISAACQkAAAgIQEAAAkJAAAICEBAAAJCQAASEgAAEBCAgAAEhIAAJCQAACAhAQAACQkAAAgIQEAAAkJAABISAAAQEICAAASEgAAkJAAAICEBAAAJCQAACAhAQAACQkAAEhIAABAQgIAABISAACQkAAAgIQEAAAkJABqYN7c+QEwyObNnRcMFgFQA/P9wwIG3MknnBQMFgFQAwuPWyACgIFmBmDwCICaOEldAwNsxeJlwWARADVx9pKzAmBQrfjj5cFgEQA1cfaJZwfAIFp43EKzlANIANREWQewYrHCBgbPZWdeGgweAVAjq//9+QEwaFycDCYBUCPvP+385lQbwKBY3fy6tCAYPAKgZv7iT64NgEFQLkj+y5lrgsEkAGqmTLWdfeLKAJhp5d6/q//BJQBq6Kt/8t/dCgBm1MeXf6x5W5LBJQBqqJy49b8/9gOnAwIzomz5u8zU/8ATADVVpt1EANBvZfbxf17wP3ztGQICoMZKhZcIcDsA6Ic/fM1x338YzHq9Iai1Pfv3xmc3XN34dk8AVKHc8y/T/q78h4cASORvnlgXax9fHwC9UmYYrzn3qjjH7qOhIwCSKbMBf/P4utj4zKYAmKr5c+fHhSs+2rjyv9BV/5ASAEmVEPjpMxtj4z9udmsA6NryxcvjnCUrmyf8GfiHmwCgGQNPvzgSz/3/nbFr3643fgzIrSzmW9B4K1uLT//j5c3B36BfHwIAABKyDRAAEhIAAJCQAACAhAQAACQkAAAgIQEAAAkJAABISAAAQEICAAASEgAAkJAAAICEBAAAJCQAACAhAQAACQkAAEhIAABAQgIAABISAACQkAAAgIQEAAAkJAAAICEBAAAJCQAASEgAAEBCAgAAEhIAAJCQAACAhAQAACQkAAAgIQEAAAkJAABISAAAQEICAAASEgAAkJAAAICEBAAAJCQAACAhAQAACQkAAEhIAABAQgIAABISAACQkAAAgIQEAAAkJAAAICEBAAAJCQAASEgAAEBCAgAAEhIAAJCQAACAhAQAACQkAAAgIQEAAAkJAABISAAAQEICAAASEgAAkJAAAICEBAAAJCQAACAhAQAACQkAAEjoXwAjNrg4ssuzogAAAABJRU5ErkJggg==;" vertex="1" parent="1">
          <mxGeometry x="280" y="130" width="512" height="512" as="geometry" />
        </mxCell>
      </root>
    </mxGraphModel>
  </diagram>
</mxfile>
